<?xml version="1.0" standalone="no"?>
<!DOCTYPE svg PUBLIC "-//W3C//DTD SVG 20010904//EN"
 "http://www.w3.org/TR/2001/REC-SVG-20010904/DTD/svg10.dtd">
<svg version="1.0" xmlns="http://www.w3.org/2000/svg"
 width="300.000000pt" height="184.000000pt" viewBox="0 0 300.000000 184.000000"
 preserveAspectRatio="xMidYMid meet">

<g transform="translate(0.000000,184.000000) scale(0.100000,-0.100000)"
fill="#000000" stroke="none">
<path d="M393 1249 c-46 -4 -87 -10 -93 -14 -5 -3 -12 -28 -16 -55 -6 -46 -8
-49 -38 -52 -30 -3 -31 -4 -31 -53 l0 -50 55 -3 c39 -2 60 -9 73 -23 18 -19
28 -20 140 -14 263 12 740 16 751 5 16 -16 121 -13 136 5 10 12 16 10 38 -17
26 -31 27 -36 26 -148 -2 -128 -15 -233 -46 -358 -11 -46 -17 -86 -14 -89 16
-17 236 -62 236 -49 0 2 9 48 19 102 11 55 27 144 35 199 20 140 19 137 75
128 25 -4 57 -6 71 -4 14 2 44 4 68 5 l43 1 57 -110 c32 -61 56 -118 54 -128
-5 -27 29 -21 105 19 37 19 72 39 77 44 4 4 -32 69 -83 144 -50 75 -91 147
-91 160 0 31 23 49 73 55 38 6 42 9 45 37 3 36 42 58 42 24 0 -19 45 -34 89
-30 21 2 23 -2 19 -30 l-5 -31 139 3 c130 3 138 4 136 22 -2 11 3 21 11 24 10
3 12 -2 7 -22 -6 -26 -6 -26 53 -26 84 0 95 -13 86 -104 -4 -39 -13 -88 -20
-108 -12 -35 -11 -38 6 -38 11 0 19 -7 19 -15 0 -17 -36 -21 -43 -5 -3 6 -4 5
-3 -2 3 -17 73 -30 95 -18 10 5 26 25 35 45 34 71 72 434 48 449 -5 3 -161 8
-348 11 -387 6 -414 9 -414 36 0 18 -27 30 -60 27 -8 0 -24 0 -35 1 -17 1 -17
3 -5 11 13 8 13 12 -3 27 -14 14 -32 17 -85 16 -114 -5 -139 -11 -146 -39 -6
-21 -12 -24 -54 -25 -254 -5 -1285 -3 -1288 3 -3 4 18 10 46 14 27 4 50 10 50
14 0 7 -46 41 -52 39 -2 -1 -40 -5 -85 -10z m-68 -89 c3 -5 1 -10 -4 -10 -6 0
-11 5 -11 10 0 6 2 10 4 10 3 0 8 -4 11 -10z m40 0 c3 -5 1 -10 -4 -10 -6 0
-11 5 -11 10 0 6 2 10 4 10 3 0 8 -4 11 -10z m40 0 c3 -5 1 -10 -4 -10 -6 0
-11 5 -11 10 0 6 2 10 4 10 3 0 8 -4 11 -10z m40 0 c3 -5 -1 -10 -9 -10 -9 0
-16 5 -16 10 0 6 4 10 9 10 6 0 13 -4 16 -10z m35 0 c0 -5 -4 -10 -10 -10 -5
0 -10 5 -10 10 0 6 5 10 10 10 6 0 10 -4 10 -10z m40 0 c0 -5 -4 -10 -10 -10
-5 0 -10 5 -10 10 0 6 5 10 10 10 6 0 10 -4 10 -10z m40 0 c0 -5 -4 -10 -10
-10 -5 0 -10 5 -10 10 0 6 5 10 10 10 6 0 10 -4 10 -10z m40 0 c0 -5 -4 -10
-10 -10 -5 0 -10 5 -10 10 0 6 5 10 10 10 6 0 10 -4 10 -10z m40 0 c0 -5 -4
-10 -9 -10 -6 0 -13 5 -16 10 -3 6 1 10 9 10 9 0 16 -4 16 -10z m35 0 c3 -5
-1 -10 -9 -10 -9 0 -16 5 -16 10 0 6 4 10 9 10 6 0 13 -4 16 -10z m40 0 c3 -5
-1 -10 -9 -10 -9 0 -16 5 -16 10 0 6 4 10 9 10 6 0 13 -4 16 -10z m35 0 c0 -5
-4 -10 -10 -10 -5 0 -10 5 -10 10 0 6 5 10 10 10 6 0 10 -4 10 -10z m40 0 c0
-5 -4 -10 -10 -10 -5 0 -10 5 -10 10 0 6 5 10 10 10 6 0 10 -4 10 -10z m40 0
c0 -5 -4 -10 -10 -10 -5 0 -10 5 -10 10 0 6 5 10 10 10 6 0 10 -4 10 -10z m40
0 c0 -5 -7 -10 -15 -10 -8 0 -15 5 -15 10 0 6 7 10 15 10 8 0 15 -4 15 -10z
m35 0 c3 -5 -1 -10 -9 -10 -9 0 -16 5 -16 10 0 6 4 10 9 10 6 0 13 -4 16 -10z
m35 0 c0 -5 -4 -10 -10 -10 -5 0 -10 5 -10 10 0 6 5 10 10 10 6 0 10 -4 10
-10z m40 0 c0 -5 -4 -10 -10 -10 -5 0 -10 5 -10 10 0 6 5 10 10 10 6 0 10 -4
10 -10z m40 0 c0 -5 -7 -10 -16 -10 -8 0 -12 5 -9 10 3 6 10 10 16 10 5 0 9
-4 9 -10z m40 0 c0 -5 -7 -10 -16 -10 -8 0 -12 5 -9 10 3 6 10 10 16 10 5 0 9
-4 9 -10z m40 0 c0 -5 -7 -10 -15 -10 -8 0 -15 5 -15 10 0 6 7 10 15 10 8 0
15 -4 15 -10z m30 0 c0 -5 -4 -10 -10 -10 -5 0 -10 5 -10 10 0 6 5 10 10 10 6
0 10 -4 10 -10z m40 6 c0 -3 -4 -8 -10 -11 -5 -3 -10 -1 -10 4 0 6 5 11 10 11
6 0 10 -2 10 -4z m46 -38 c4 -5 -26 -8 -67 -8 -41 0 -69 4 -62 8 15 10 119 9
129 0z m-399 -5 c-20 -2 -52 -2 -70 0 -17 2 0 4 38 4 39 0 53 -2 32 -4z m191
0 c-21 -2 -55 -2 -75 0 -21 2 -4 4 37 4 41 0 58 -2 38 -4z m-158 -93 c0 -6
-28 -10 -65 -10 -37 0 -65 4 -65 10 0 6 28 10 65 10 37 0 65 -4 65 -10z m180
0 c0 -6 -28 -10 -65 -10 -37 0 -65 4 -65 10 0 6 28 10 65 10 37 0 65 -4 65
-10z m185 0 c-3 -5 -35 -10 -71 -10 -36 0 -64 4 -64 10 0 6 30 10 71 10 44 0
68 -4 64 -10z m-752 -7 c-13 -2 -33 -2 -45 0 -13 2 -3 4 22 4 25 0 35 -2 23
-4z m1332 -24 c4 -6 4 -13 0 -17 -4 -4 -10 -1 -12 6 -3 6 -9 12 -14 12 -6 0
-7 -5 -3 -12 4 -7 3 -8 -5 -4 -6 4 -9 12 -6 17 8 12 32 11 40 -2z m42 5 c-3
-3 -12 -4 -19 -1 -8 3 -5 6 6 6 11 1 17 -2 13 -5z m519 -61 c-11 -11 -19 6
-11 24 8 17 8 17 12 0 3 -10 2 -21 -1 -24z m302 9 c3 -9 -3 -13 -19 -10 -12 1
-24 9 -27 16 -3 9 3 13 19 10 12 -1 24 -9 27 -16z m67 6 c31 -14 33 -28 3 -28
-30 0 -52 15 -44 29 9 14 9 14 41 -1z m55 -58 c7 -13 8 -26 1 -38 -10 -18 -9
-20 -25 32 -4 12 2 26 10 26 2 0 8 -9 14 -20z m-970 -43 c0 -18 -3 -37 -7 -43
-5 -5 0 -1 10 9 9 11 17 30 17 43 0 26 18 32 38 12 19 -19 14 -55 -10 -78 -20
-19 -32 -21 -86 -18 -41 3 -67 9 -73 19 -27 42 10 89 71 89 39 0 40 -1 40 -33z
m963 -90 c-7 -58 -23 -71 -23 -20 0 47 8 75 20 68 4 -3 6 -24 3 -48z"/>
</g>
</svg>
