<?xml version="1.0" standalone="no"?>
<!DOCTYPE svg PUBLIC "-//W3C//DTD SVG 20010904//EN"
 "http://www.w3.org/TR/2001/REC-SVG-20010904/DTD/svg10.dtd">
<svg version="1.0" xmlns="http://www.w3.org/2000/svg"
 width="300.000000pt" height="200.000000pt" viewBox="0 0 300.000000 200.000000"
 preserveAspectRatio="xMidYMid meet">

<g transform="translate(0.000000,200.000000) scale(0.100000,-0.100000)"
fill="#000000" stroke="none">
<path d="M550 1566 c0 -9 7 -16 16 -16 17 0 14 22 -4 28 -7 2 -12 -3 -12 -12z"/>
<path d="M507 1480 c4 -15 0 -20 -13 -21 -11 0 33 -11 96 -24 63 -14 122 -24
130 -24 23 1 0 8 -71 23 -50 10 -63 17 -61 30 3 17 -13 22 -22 7 -9 -13 -46
-1 -46 15 0 8 -4 14 -9 14 -5 0 -7 -9 -4 -20z"/>
<path d="M94 1465 c17 -13 18 -15 3 -15 -9 0 -17 -6 -17 -14 0 -13 64 -30 160
-41 25 -3 71 -12 103 -19 31 -7 57 -11 57 -7 0 3 11 6 25 6 14 0 23 -4 21 -10
-1 -5 -11 -8 -21 -7 -13 3 -10 -3 11 -20 16 -14 54 -30 84 -36 251 -51 535
-113 593 -129 9 -2 14 -9 11 -15 -5 -7 -1 -9 9 -5 8 3 21 -1 28 -9 6 -8 14
-13 16 -10 3 2 36 -4 74 -15 39 -11 74 -17 78 -14 11 6 39 -26 42 -50 2 -11 0
-30 -4 -41 -4 -12 -9 -49 -11 -84 -4 -51 -15 -83 -63 -180 -55 -113 -57 -120
-38 -128 11 -5 24 -10 28 -10 4 -1 15 -8 23 -17 9 -8 22 -15 30 -15 8 0 14 -4
14 -8 0 -10 60 -33 70 -27 14 9 93 171 115 235 21 61 24 65 51 64 16 -1 40 -5
54 -8 17 -5 12 0 -13 14 -45 25 -54 42 -38 76 10 22 16 25 59 22 47 -3 47 -3
47 -40 0 -42 11 -41 20 3 6 24 9 28 21 18 22 -18 17 -66 -8 -83 -12 -9 -20
-17 -17 -19 2 -1 17 -9 32 -17 16 -8 35 -27 43 -42 20 -39 54 -148 54 -175 0
-22 3 -23 90 -23 106 0 108 3 61 91 -72 133 -91 176 -91 206 0 45 31 75 73 71
28 -3 32 0 35 23 2 16 11 29 22 32 24 6 107 -14 149 -37 18 -10 30 -13 27 -8
-4 6 2 8 14 5 11 -3 18 -9 15 -13 -3 -4 11 -11 30 -14 24 -5 35 -12 35 -24 0
-26 20 -42 51 -42 19 0 28 -6 33 -22 3 -13 21 -34 41 -47 19 -13 35 -27 35
-32 0 -13 28 -11 32 2 2 7 22 6 63 -3 60 -14 60 -14 59 -48 -1 -19 -5 -51 -9
-71 l-7 -35 71 -28 c39 -15 73 -32 77 -37 3 -5 16 -9 29 -9 18 0 31 11 49 43
28 48 78 193 96 281 12 57 11 60 -11 77 -15 11 -26 14 -30 7 -4 -7 -22 -7 -55
1 -27 7 -65 13 -84 15 -34 3 -291 51 -549 102 -130 25 -188 50 -183 77 3 16
-18 24 -105 42 -29 6 -33 11 -33 37 0 26 -2 29 -15 18 -9 -8 -15 -8 -15 -2 0
17 -41 9 -51 -10 -8 -15 -18 -17 -52 -12 -23 3 -55 10 -72 15 -16 4 -43 11
-60 13 -42 8 -108 21 -275 56 -162 33 -170 34 -170 19 0 -6 8 -8 18 -5 9 3 24
1 32 -4 17 -12 -75 -5 -93 7 -6 3 -22 7 -36 8 -14 1 -43 5 -64 9 -38 7 -38 7
-26 -16 7 -13 14 -28 15 -35 3 -17 -30 -26 -65 -18 -21 4 -30 2 -35 -10 -3 -9
-11 -13 -16 -10 -8 5 -7 11 1 21 9 11 8 14 -7 14 -11 0 -64 10 -118 22 -74 16
-101 19 -104 10 -5 -16 -23 -16 -20 0 2 7 -7 14 -19 16 -17 2 -23 10 -23 29 0
20 4 24 19 20 15 -3 18 -1 14 11 -5 12 -2 14 11 9 10 -4 22 -7 27 -7 6 0 8 -4
4 -9 -3 -5 -1 -12 5 -16 5 -3 10 1 10 9 0 18 6 19 35 6 19 -8 19 -9 1 -9 -17
-1 -15 -16 2 -16 4 0 13 -4 20 -8 8 -5 12 -3 12 7 0 9 8 16 19 16 26 0 36 -17
14 -23 -14 -4 -13 -5 4 -6 12 0 23 5 25 11 4 10 10 10 29 1 17 -8 19 -12 7
-12 -30 -2 -27 -16 3 -16 17 0 29 5 29 13 0 13 22 17 33 5 4 -3 3 -11 -3 -17
-6 -8 -3 -12 9 -12 11 0 23 7 29 16 8 14 -22 22 -227 64 -297 62 -297 62 -304
42 -4 -11 -1 -16 11 -16 10 -1 5 -6 -13 -14 -32 -13 -52 -11 -190 21 -107 25
-60 27 60 3 123 -25 154 -21 38 5 -43 10 -111 26 -152 36 -92 24 -114 24 -87
4z m418 -91 c-4 -37 -22 -57 -22 -24 0 23 0 23 -14 4 -18 -25 -25 -17 -19 23
4 27 9 31 32 28 22 -2 26 -7 23 -31z m64 10 c12 5 15 2 10 -10 -3 -8 -6 -22
-6 -29 0 -9 -11 -13 -30 -13 -16 1 -30 5 -30 10 0 4 3 7 8 7 18 -3 32 2 32 12
0 6 -8 8 -19 4 -16 -5 -18 -2 -14 15 4 16 8 18 19 9 8 -6 21 -8 30 -5z m487
-88 c3 -8 -1 -20 -8 -26 -8 -7 -13 -15 -11 -19 3 -4 -4 -7 -15 -7 -24 0 -24 5
-1 22 15 12 15 13 0 8 -13 -4 -15 -1 -11 15 6 24 38 28 46 7z m52 -7 c9 -13 3
-19 -23 -24 -15 -3 -19 1 -15 16 6 21 28 26 38 8z m-395 -9 c0 -5 -2 -10 -4
-10 -3 0 -8 5 -11 10 -3 6 -1 10 4 10 6 0 11 -4 11 -10z m65 -10 c3 -5 -1 -10
-9 -10 -9 0 -16 5 -16 10 0 6 4 10 9 10 6 0 13 -4 16 -10z m405 -12 c0 -17 -3
-19 -9 -9 -6 10 -11 1 -16 -28 -4 -25 -12 -41 -21 -41 -17 0 -17 8 0 39 7 13
11 32 8 43 -3 13 1 18 17 18 15 0 21 -6 21 -22z m-345 2 c3 -5 -1 -10 -10 -10
-9 0 -13 5 -10 10 3 6 8 10 10 10 2 0 7 -4 10 -10z m425 -11 c18 -15 20 -19 7
-15 -11 3 -30 9 -43 12 -13 3 -24 10 -24 15 0 16 34 9 60 -12z m-133 -11 c-3
-8 -6 -5 -6 6 -1 11 2 17 5 13 3 -3 4 -12 1 -19z m-23 1 c3 -3 -8 -5 -23 -4
-16 0 -27 3 -25 7 5 8 40 6 48 -3z m296 1 c0 -5 -5 -10 -11 -10 -5 0 -7 5 -4
10 3 6 8 10 11 10 2 0 4 -4 4 -10z m-440 -10 c0 -5 -4 -10 -9 -10 -6 0 -13 5
-16 10 -3 6 1 10 9 10 9 0 16 -4 16 -10z m60 -10 c0 -5 -4 -10 -10 -10 -5 0
-10 5 -10 10 0 6 5 10 10 10 6 0 10 -4 10 -10z m65 -10 c3 -5 -3 -10 -15 -10
-12 0 -18 5 -15 10 3 6 10 10 15 10 5 0 12 -4 15 -10z m120 -30 c3 -5 -1 -10
-9 -10 -9 0 -16 5 -16 10 0 6 4 10 9 10 6 0 13 -4 16 -10z m230 -40 c17 -7 15
-9 -12 -9 -17 -1 -35 4 -38 9 -7 12 22 12 50 0z m10 -337 c-9 -15 -13 -19 -10
-8 4 11 10 29 13 40 3 11 7 14 9 8 3 -7 -3 -24 -12 -40z m62 15 c-3 -8 -6 -5
-6 6 -1 11 2 17 5 13 3 -3 4 -12 1 -19z m1063 -18 c0 -5 -2 -10 -4 -10 -3 0
-8 5 -11 10 -3 6 -1 10 4 10 6 0 11 -4 11 -10z m-1091 -59 c-12 -29 -23 -50
-25 -48 -2 2 6 27 18 55 12 28 23 50 26 48 2 -2 -7 -27 -19 -55z m1131 49 c0
-5 -4 -10 -10 -10 -5 0 -10 5 -10 10 0 6 5 10 10 10 6 0 10 -4 10 -10z m40
-10 c0 -5 -4 -10 -10 -10 -5 0 -10 5 -10 10 0 6 5 10 10 10 6 0 10 -4 10 -10z
m40 -10 c0 -5 -2 -10 -4 -10 -3 0 -8 5 -11 10 -3 6 -1 10 4 10 6 0 11 -4 11
-10z m110 -10 c0 -13 -11 -13 -30 0 -12 8 -11 10 8 10 12 0 22 -4 22 -10z
m-42 -48 c3 -17 -2 -22 -17 -22 -14 0 -21 6 -21 18 0 38 33 41 38 4z m-1355
-17 c-9 -19 -18 -33 -21 -31 -4 5 26 66 33 66 3 0 -3 -16 -12 -35z m47 -23 c0
-5 -7 -17 -15 -28 -14 -18 -14 -17 -4 9 12 27 19 34 19 19z m1210 -57 c0 -8
-4 -15 -10 -15 -5 0 -10 7 -10 15 0 8 5 15 10 15 6 0 10 -7 10 -15z m40 -5 c0
-5 -4 -10 -10 -10 -5 0 -10 5 -10 10 0 6 5 10 10 10 6 0 10 -4 10 -10z m-1290
-8 c0 -5 -7 -17 -15 -28 -14 -18 -14 -17 -4 9 12 27 19 34 19 19z m1330 -2 c0
-5 -4 -10 -10 -10 -5 0 -10 5 -10 10 0 6 5 10 10 10 6 0 10 -4 10 -10z"/>
<path d="M748 1403 c6 -2 18 -2 25 0 6 3 1 5 -13 5 -14 0 -19 -2 -12 -5z"/>
<path d="M835 1385 c28 -7 59 -13 70 -13 11 0 -2 6 -30 13 -27 7 -59 13 -70
13 -11 0 3 -6 30 -13z"/>
<path d="M1010 1348 c47 -11 92 -22 100 -25 27 -11 40 -11 40 -3 0 5 -17 12
-37 16 -21 3 -63 12 -94 20 -31 8 -65 13 -75 13 -11 -1 19 -10 66 -21z"/>
<path d="M460 1290 c0 -5 7 -10 16 -10 8 0 12 5 9 10 -3 6 -10 10 -16 10 -5 0
-9 -4 -9 -10z"/>
<path d="M500 1280 c0 -5 12 -10 28 -10 21 0 24 2 12 10 -20 13 -40 13 -40 0z"/>
<path d="M920 1280 c0 -5 5 -10 10 -10 6 0 10 5 10 10 0 6 -4 10 -10 10 -5 0
-10 -4 -10 -10z"/>
<path d="M1866 1277 c3 -10 9 -15 12 -12 3 3 0 11 -7 18 -10 9 -11 8 -5 -6z"/>
<path d="M570 1270 c0 -6 7 -10 15 -10 8 0 15 2 15 4 0 2 -7 6 -15 10 -8 3
-15 1 -15 -4z"/>
</g>
</svg>
