<?xml version="1.0" standalone="no"?>
<!DOCTYPE svg PUBLIC "-//W3C//DTD SVG 20010904//EN"
 "http://www.w3.org/TR/2001/REC-SVG-20010904/DTD/svg10.dtd">
<svg version="1.0" xmlns="http://www.w3.org/2000/svg"
 width="300.000000pt" height="127.000000pt" viewBox="0 0 300.000000 127.000000"
 preserveAspectRatio="xMidYMid meet">

<g transform="translate(0.000000,127.000000) scale(0.100000,-0.100000)"
fill="#000000" stroke="none">
<path d="M1067 1099 c-10 -6 -25 -8 -33 -5 -9 3 -14 -1 -14 -12 0 -11 -3 -13
-8 -6 -4 6 -17 14 -28 18 -16 5 -23 2 -27 -14 -6 -22 18 -29 26 -7 4 10 6 10
6 0 1 -14 41 -18 41 -4 0 12 39 21 46 10 3 -5 0 -9 -5 -9 -6 0 -11 -8 -11 -17
0 -15 2 -16 10 -3 7 11 30 13 112 11 56 -1 106 -5 110 -7 17 -11 7 16 -13 35
-17 16 -26 18 -47 10 -18 -7 -28 -6 -34 3 -5 9 -8 9 -8 1 0 -7 -15 -10 -41 -8
-30 2 -42 -1 -47 -13 -5 -14 -7 -13 -12 5 -4 18 -8 20 -23 12z m116 -26 c-7
-2 -19 -2 -25 0 -7 3 -2 5 12 5 14 0 19 -2 13 -5z m54 1 c-3 -3 -12 -4 -19 -1
-8 3 -5 6 6 6 11 1 17 -2 13 -5z"/>
<path d="M548 1093 c30 -4 46 -22 20 -24 -7 0 -4 -4 7 -9 19 -8 19 -9 -2 -9
-13 -1 -23 4 -23 9 0 6 -6 10 -12 9 -16 0 -82 -134 -74 -147 3 -5 33 -10 66
-11 l60 -1 -6 56 -7 55 29 -4 c16 -2 35 0 41 5 7 6 21 7 30 3 10 -4 27 -8 38
-9 11 -1 21 -9 23 -19 6 -32 -8 -86 -21 -82 -7 2 -27 6 -45 9 -25 4 -31 3 -26
-7 6 -9 4 -9 -8 1 -13 10 -17 9 -22 -10 -10 -37 -7 -60 6 -52 8 5 9 2 5 -10
-4 -10 -7 -20 -7 -22 0 -3 -5 -2 -10 1 -7 5 -10 -17 -8 -66 l3 -73 32 -8 c26
-7 43 -3 81 16 47 24 55 25 278 25 l229 1 -2 39 c-1 21 -15 69 -32 106 -34 74
-35 79 -22 71 5 -4 38 0 73 7 35 8 72 13 81 11 9 -1 17 4 17 12 0 9 -5 12 -10
9 -6 -4 -23 6 -38 22 -24 26 -31 28 -67 21 -22 -4 -57 -7 -77 -7 -64 -1 -42
-21 25 -22 l62 -2 -50 -7 c-27 -5 -65 -9 -82 -9 -30 -1 -33 2 -34 32 -1 23 -3
26 -6 9 -2 -12 -9 -20 -14 -17 -5 3 -6 0 -3 -8 4 -11 -1 -13 -21 -9 -16 3 -30
0 -35 -8 -5 -8 -33 -15 -67 -17 -41 -2 -52 0 -38 6 11 5 18 10 15 11 -3 1 -14
3 -26 5 -11 3 -34 11 -50 20 -16 8 -35 15 -42 15 -7 0 -20 7 -28 15 -9 8 -27
15 -40 15 -14 0 -22 4 -19 10 3 6 31 10 61 10 46 0 54 3 54 19 0 16 -7 18 -45
15 -24 -1 -50 -6 -56 -10 -7 -4 -9 -3 -6 3 4 6 -6 10 -23 9 -17 -1 -30 -4 -30
-8 0 -5 -5 -8 -11 -8 -5 0 -7 5 -4 10 4 6 -17 9 -57 8 -35 0 -48 -3 -30 -5z
m480 -142 c10 -5 36 -6 60 -1 24 4 42 3 42 -2 0 -5 4 -7 8 -4 5 3 8 -5 7 -17
-2 -22 -4 -22 -190 -25 -104 -1 -186 1 -182 4 4 4 19 8 34 9 118 10 176 19
186 31 15 16 14 16 35 5z"/>
<path d="M821 1075 c0 -11 3 -14 6 -7 2 6 12 12 21 12 15 0 15 -2 2 -10 -13
-8 -13 -10 2 -10 9 0 20 5 23 10 3 6 23 10 43 11 35 0 36 1 14 12 -18 8 -28 8
-43 -1 -10 -7 -19 -8 -19 -3 0 5 -11 8 -25 7 -18 -1 -25 -6 -24 -21z"/>
<path d="M641 989 c-15 -34 -5 -53 25 -47 25 4 29 40 7 61 -17 15 -19 14 -32
-14z"/>
<path d="M1380 896 c0 -4 7 -21 16 -38 25 -48 15 -175 -16 -200 -21 -17 -21
-18 -2 -18 13 0 23 10 30 28 l10 29 238 2 c147 1 240 5 242 11 2 7 28 8 67 4
35 -4 84 -3 109 0 44 7 46 9 46 41 0 29 4 34 28 38 25 4 25 4 -5 6 -22 0 -33
6 -33 16 0 12 20 15 119 15 107 0 457 -15 569 -24 23 -1 45 1 48 6 3 4 10 5
16 2 7 -5 9 2 4 22 -4 16 -13 32 -19 36 -7 4 -75 9 -152 10 -77 1 -165 3 -195
4 -303 8 -1120 16 -1120 10z"/>
<path d="M438 789 c-1 -28 0 -55 3 -60 3 -6 35 -9 70 -7 l64 3 5 46 c3 26 4
52 2 58 -2 7 -31 11 -72 11 l-68 0 -4 -51z"/>
<path d="M2190 791 c0 -5 9 -7 20 -4 17 4 20 1 18 -21 -2 -20 -8 -26 -25 -26
-12 0 -25 -4 -28 -10 -4 -6 8 -10 29 -10 35 0 36 1 36 40 0 36 -2 40 -25 40
-14 0 -25 -4 -25 -9z"/>
<path d="M2470 725 c0 -8 2 -15 4 -15 2 0 6 7 10 15 3 8 1 15 -4 15 -6 0 -10
-7 -10 -15z"/>
<path d="M350 719 c0 -8 -13 -10 -36 -6 -55 9 -124 -2 -117 -19 3 -8 14 -14
25 -14 12 0 17 4 12 13 -6 10 -4 10 7 0 17 -16 63 -17 53 -2 -4 7 -1 10 7 7 8
-3 17 -24 20 -49 l6 -44 3 45 3 45 7 -45 7 -45 1 41 c1 27 7 44 17 48 12 4 15
-4 15 -39 0 -28 -5 -45 -12 -45 -6 0 -9 -3 -5 -6 3 -3 14 -3 24 0 15 5 18 13
15 42 l-5 37 37 -7 c23 -4 36 -3 36 4 0 5 -11 10 -25 10 -14 0 -25 5 -25 10 0
6 -9 10 -19 10 -11 0 -23 5 -26 10 -8 14 -25 13 -25 -1z"/>
<path d="M2770 700 c-8 -5 -11 -12 -8 -16 4 -3 14 1 23 10 18 17 9 21 -15 6z"/>
<path d="M1503 663 c37 -2 96 -2 130 0 34 2 4 3 -68 3 -71 0 -99 -1 -62 -3z"/>
<path d="M1728 663 c7 -3 16 -2 19 1 4 3 -2 6 -13 5 -11 0 -14 -3 -6 -6z"/>
<path d="M162 640 c0 -14 2 -19 5 -12 2 6 2 18 0 25 -3 6 -5 1 -5 -13z"/>
<path d="M587 643 c-14 -7 -28 -22 -32 -33 -5 -16 -15 -20 -51 -20 -41 0 -44
2 -44 28 0 21 -2 24 -10 12 -5 -8 -10 -11 -10 -6 0 5 -7 3 -15 -4 -9 -8 -14
-28 -14 -54 1 -23 4 -31 6 -18 4 20 10 22 62 22 44 0 64 -5 81 -20 13 -11 29
-20 36 -20 19 0 26 17 9 24 -23 8 -19 63 6 76 11 6 28 9 37 7 13 -4 13 -5 -3
-6 -54 -3 -62 -61 -12 -79 41 -15 87 -16 87 -2 0 6 -7 10 -15 10 -17 0 -57 20
-67 35 -10 13 0 25 23 25 10 0 19 5 19 10 0 6 14 10 30 10 29 0 30 -2 30 -46
0 -34 3 -43 13 -37 6 4 75 10 152 14 l140 6 -125 1 c-69 1 -135 1 -147 1 -17
1 -23 7 -23 24 0 24 2 24 143 30 78 4 181 7 230 7 76 0 87 -2 87 -17 0 -25
-12 -40 -35 -46 -12 -4 -9 -5 10 -4 25 2 31 7 33 30 3 26 6 27 60 28 l57 2
-70 7 c-38 4 -201 10 -361 12 -230 4 -297 2 -317 -9z"/>
<path d="M694 606 c-8 -22 3 -33 18 -18 9 9 9 15 0 24 -9 9 -13 7 -18 -6z"/>
<path d="M2688 563 c7 -3 16 -2 19 1 4 3 -2 6 -13 5 -11 0 -14 -3 -6 -6z"/>
<path d="M2738 563 c12 -2 32 -2 45 0 12 2 2 4 -23 4 -25 0 -35 -2 -22 -4z"/>
<path d="M2810 559 c0 -5 5 -7 10 -4 6 3 10 8 10 11 0 2 -4 4 -10 4 -5 0 -10
-5 -10 -11z"/>
<path d="M1766 552 c-15 -3 -14 -6 5 -23 26 -23 35 -24 42 -4 4 10 25 15 69
17 l63 3 -81 5 c-45 3 -89 3 -98 2z"/>
<path d="M2053 552 c-7 -5 67 -6 165 -4 97 2 179 6 181 8 8 8 -334 4 -346 -4z"/>
<path d="M1054 529 c9 -13 16 -43 16 -66 0 -35 -3 -43 -19 -43 -10 0 -24 -7
-31 -15 -7 -8 -9 -15 -5 -15 4 0 2 -6 -4 -14 -16 -19 6 -26 88 -26 l67 0 11
43 c34 120 20 148 -77 155 l-63 5 17 -24z"/>
<path d="M1290 539 l-85 -5 108 -2 c114 -2 121 -6 97 -52 -12 -22 4 -75 33
-107 22 -25 185 -93 222 -93 27 0 75 19 75 31 0 4 -7 10 -16 13 -8 3 -13 9
-11 13 3 5 -14 6 -38 5 -69 -6 -255 78 -255 115 0 13 33 79 42 84 13 8 -35 7
-172 -2z"/>
<path d="M1973 543 c9 -2 23 -2 30 0 6 3 -1 5 -18 5 -16 0 -22 -2 -12 -5z"/>
<path d="M904 522 c-30 -10 -74 -44 -74 -59 0 -6 -6 -13 -12 -15 -8 -3 -13
-24 -13 -57 0 -47 4 -56 30 -77 34 -27 95 -32 118 -9 8 8 17 12 20 9 2 -3 7 2
11 11 4 11 2 14 -6 9 -7 -5 -9 -2 -5 9 5 14 -1 15 -41 10 -63 -7 -97 18 -95
71 1 43 17 64 61 83 17 7 32 15 32 18 0 3 -1 5 -2 4 -2 -1 -13 -4 -24 -7z"/>
<path d="M432 487 c3 -25 31 -30 36 -6 2 10 -6 19 -18 22 -17 4 -21 1 -18 -16z"/>
<path d="M696 495 c-9 -24 -8 -25 20 -25 19 0 25 5 22 17 -4 23 -34 28 -42 8z"/>
<path d="M1350 495 c-7 -9 -8 -15 -2 -15 5 0 12 7 16 15 3 8 4 15 2 15 -2 0
-9 -7 -16 -15z"/>
<path d="M1870 500 c0 -5 5 -10 10 -10 6 0 10 5 10 10 0 6 -4 10 -10 10 -5 0
-10 -4 -10 -10z"/>
<path d="M558 453 c6 -2 18 -2 25 0 6 3 1 5 -13 5 -14 0 -19 -2 -12 -5z"/>
<path d="M2206 355 c-3 -8 -1 -15 4 -15 6 0 10 7 10 15 0 8 -2 15 -4 15 -2 0
-6 -7 -10 -15z"/>
<path d="M2561 331 c-10 -7 -10 -12 0 -30 15 -22 35 -25 112 -15 69 10 47 23
-28 16 -56 -4 -65 -3 -60 11 8 18 -6 29 -24 18z"/>
<path d="M1232 313 c2 -10 11 -17 20 -17 11 1 14 -4 10 -15 -5 -14 -4 -14 12
-2 18 15 16 17 -27 42 -16 9 -18 8 -15 -8z"/>
<path d="M2738 293 c7 -3 16 -2 19 1 4 3 -2 6 -13 5 -11 0 -14 -3 -6 -6z"/>
<path d="M1430 256 c0 -9 7 -12 20 -9 11 3 20 9 20 14 0 5 -9 9 -20 9 -11 0
-20 -6 -20 -14z"/>
<path d="M1340 240 c8 -5 20 -10 25 -10 6 0 3 5 -5 10 -8 5 -19 10 -25 10 -5
0 -3 -5 5 -10z"/>
<path d="M1745 240 c-11 -17 5 -32 21 -19 7 6 11 15 8 20 -7 12 -21 11 -29 -1z"/>
<path d="M920 215 c-10 -12 -9 -16 3 -21 20 -7 37 3 37 22 0 18 -24 18 -40 -1z"/>
<path d="M1635 180 c-77 -3 -131 -7 -120 -8 12 -1 26 -7 32 -13 19 -19 243 -7
273 14 27 19 20 23 -11 7 -13 -7 -19 -7 -19 0 0 5 -3 9 -7 8 -5 -1 -71 -5
-148 -8z"/>
<path d="M854 163 c16 -3 40 -11 52 -20 19 -12 40 -14 104 -8 44 4 83 12 87
18 3 6 1 7 -5 3 -7 -4 -12 -4 -12 1 0 4 -57 8 -128 9 -70 0 -114 -1 -98 -3z"/>
</g>
</svg>
